<svg 
 xmlns="http://www.w3.org/2000/svg"
 xmlns:xlink="http://www.w3.org/1999/xlink"
 width="22px" height="25px">
<path fill-rule="evenodd"  fill="rgb(96, 186, 190)"
 d="M20.194,9.491 L6.370,0.733 C5.246,0.022 3.889,-0.007 2.741,0.654 C1.597,1.310 0.914,2.504 0.914,3.847 L0.914,21.283 C0.914,23.315 2.514,24.977 4.483,24.988 L4.497,24.988 C5.119,24.988 5.762,24.790 6.356,24.417 C6.957,24.041 7.150,23.235 6.785,22.619 C6.604,22.314 6.317,22.102 5.976,22.020 C5.643,21.942 5.295,21.995 5.001,22.179 C4.816,22.296 4.636,22.359 4.494,22.359 C4.013,22.357 3.497,21.924 3.497,21.283 L3.497,3.847 C3.497,3.466 3.689,3.127 4.012,2.942 C4.326,2.760 4.697,2.769 5.004,2.963 L18.829,11.722 C19.137,11.916 19.307,12.231 19.306,12.606 C19.305,12.982 19.134,13.297 18.823,13.491 L8.828,19.781 C8.228,20.159 8.037,20.967 8.403,21.579 C8.584,21.885 8.872,22.097 9.213,22.178 C9.548,22.258 9.893,22.201 10.187,22.016 L20.181,15.727 C21.249,15.059 21.887,13.895 21.890,12.612 C21.892,11.330 21.259,10.163 20.194,9.491 ZM4.497,24.612 L4.497,24.612 L4.497,24.612 L4.497,24.612 Z"/>
</svg>