<svg 
 xmlns="http://www.w3.org/2000/svg"
 xmlns:xlink="http://www.w3.org/1999/xlink"
 width="19px" height="14px">
<path fill-rule="evenodd"  fill="rgb(216, 220, 231)"
 d="M18.583,13.572 C18.306,13.858 17.972,14.000 17.583,14.000 L1.417,14.000 C1.027,14.000 0.694,13.858 0.416,13.572 C0.139,13.286 0.000,12.943 0.000,12.542 L0.000,1.457 C0.000,1.056 0.139,0.713 0.416,0.427 C0.694,0.141 1.027,-0.002 1.417,-0.002 L17.583,-0.002 C17.972,-0.002 18.306,0.141 18.583,0.427 C18.861,0.713 18.999,1.056 18.999,1.457 L18.999,12.542 C18.999,12.943 18.861,13.286 18.583,13.572 ZM17.866,1.457 C17.866,1.378 17.838,1.310 17.782,1.252 C17.726,1.194 17.659,1.165 17.583,1.165 L1.417,1.165 C1.340,1.165 1.274,1.194 1.218,1.252 C1.162,1.310 1.133,1.378 1.133,1.457 L1.133,3.499 L17.866,3.499 L17.866,1.457 ZM17.866,7.000 L1.133,7.000 L1.133,12.542 C1.133,12.621 1.162,12.689 1.218,12.747 C1.274,12.805 1.340,12.833 1.417,12.833 L17.583,12.833 C17.659,12.833 17.726,12.805 17.782,12.747 C17.838,12.689 17.866,12.621 17.866,12.542 L17.866,7.000 ZM5.667,10.500 L9.067,10.500 L9.067,11.667 L5.667,11.667 L5.667,10.500 ZM2.267,10.500 L4.533,10.500 L4.533,11.667 L2.267,11.667 L2.267,10.500 Z"/>
</svg>