<svg 
 xmlns="http://www.w3.org/2000/svg"
 xmlns:xlink="http://www.w3.org/1999/xlink"
 width="8px" height="8px">
<path fill-rule="evenodd"  fill="rgb(90, 106, 137)"
 d="M5.303,3.988 L7.771,1.520 C8.043,1.248 8.043,0.806 7.771,0.534 L7.442,0.205 C7.169,-0.068 6.727,-0.068 6.455,0.205 L3.988,2.672 L1.521,0.204 C1.248,-0.068 0.806,-0.068 0.534,0.204 L0.204,0.533 C-0.068,0.806 -0.068,1.248 0.204,1.520 L2.672,3.988 L0.205,6.455 C-0.068,6.727 -0.068,7.169 0.205,7.441 L0.534,7.770 C0.806,8.043 1.248,8.043 1.521,7.770 L3.988,5.303 L6.455,7.770 C6.728,8.043 7.169,8.043 7.442,7.770 L7.771,7.441 C8.043,7.169 8.043,6.727 7.771,6.455 L5.303,3.988 Z"/>
</svg>