<svg 
 xmlns="http://www.w3.org/2000/svg"
 xmlns:xlink="http://www.w3.org/1999/xlink"
 width="38px" height="40px">
<path fill-rule="evenodd"  fill="rgb(96, 186, 190)"
 d="M36.167,19.481 C36.008,19.811 36.008,20.188 36.167,20.518 L37.644,23.569 C38.467,25.269 37.815,27.294 36.161,28.181 L33.190,29.773 C32.870,29.945 32.650,30.250 32.587,30.611 L32.006,33.957 C31.683,35.820 29.977,37.072 28.123,36.807 L24.793,36.331 C24.434,36.280 24.078,36.397 23.817,36.652 L21.400,39.013 C20.727,39.671 19.863,40.000 19.000,40.000 C18.136,40.000 17.273,39.671 16.600,39.013 L14.183,36.652 C13.922,36.397 13.566,36.280 13.207,36.331 L9.877,36.807 C9.711,36.831 9.546,36.842 9.383,36.842 C7.728,36.843 6.288,35.653 5.994,33.957 L5.413,30.611 C5.350,30.250 5.130,29.945 4.810,29.773 L1.839,28.181 C0.185,27.294 -0.467,25.269 0.355,23.569 L1.832,20.518 C1.992,20.188 1.992,19.811 1.832,19.481 L0.355,16.429 C-0.467,14.730 0.185,12.705 1.839,11.818 L4.810,10.226 C5.130,10.054 5.350,9.749 5.413,9.388 L5.994,6.042 C6.317,4.179 8.023,2.927 9.877,3.192 L13.207,3.668 C13.566,3.719 13.922,3.602 14.183,3.347 L16.600,0.985 C17.946,-0.330 20.054,-0.330 21.400,0.985 L23.817,3.347 C24.078,3.602 24.433,3.719 24.793,3.667 L28.123,3.192 C29.977,2.927 31.683,4.179 32.006,6.042 L32.587,9.388 C32.650,9.749 32.870,10.054 33.190,10.226 L36.161,11.818 C37.815,12.705 38.467,14.730 37.644,16.429 L36.167,19.481 ZM34.115,18.468 L35.592,15.416 C35.871,14.841 35.650,14.156 35.091,13.856 L32.120,12.264 C31.172,11.756 30.523,10.853 30.337,9.786 L29.756,6.440 C29.647,5.810 29.070,5.387 28.443,5.476 L25.113,5.952 C24.051,6.104 23.000,5.759 22.229,5.006 L19.812,2.644 C19.357,2.199 18.643,2.199 18.188,2.644 L15.771,5.006 C15.000,5.759 13.949,6.104 12.887,5.952 L9.557,5.476 C8.930,5.387 8.353,5.810 8.243,6.440 L7.662,9.786 C7.477,10.853 6.827,11.756 5.880,12.264 L2.909,13.856 C2.350,14.156 2.129,14.841 2.407,15.416 L3.884,18.468 C4.355,19.441 4.355,20.557 3.884,21.531 L2.407,24.583 C2.129,25.157 2.350,25.843 2.909,26.143 L5.880,27.735 C6.827,28.243 7.477,29.146 7.662,30.212 L8.243,33.558 C8.353,34.189 8.930,34.612 9.557,34.523 L12.887,34.047 C13.052,34.023 13.216,34.012 13.379,34.012 C14.268,34.012 15.119,34.357 15.771,34.993 L18.188,37.355 C18.643,37.800 19.357,37.800 19.812,37.355 L22.229,34.993 C23.000,34.240 24.051,33.895 25.113,34.047 L28.443,34.523 C29.070,34.612 29.647,34.189 29.757,33.558 L30.338,30.213 C30.523,29.146 31.173,28.243 32.120,27.735 L35.091,26.143 C35.650,25.843 35.871,25.157 35.592,24.583 L34.115,21.531 C33.645,20.557 33.645,19.441 34.115,18.468 ZM23.568,30.381 C21.259,30.381 19.381,28.484 19.381,26.152 C19.381,23.819 21.259,21.922 23.568,21.922 C25.877,21.922 27.755,23.819 27.755,26.152 C27.755,28.484 25.877,30.381 23.568,30.381 ZM23.568,24.229 C22.518,24.229 21.665,25.091 21.665,26.152 C21.665,27.212 22.518,28.074 23.568,28.074 C24.618,28.074 25.471,27.212 25.471,26.152 C25.471,25.091 24.618,24.229 23.568,24.229 ZM12.270,28.428 C12.047,28.653 11.755,28.766 11.463,28.766 C11.171,28.766 10.878,28.653 10.655,28.428 C10.209,27.977 10.209,27.247 10.655,26.797 L25.729,11.571 C26.175,11.120 26.899,11.120 27.344,11.571 C27.790,12.021 27.790,12.752 27.344,13.202 L12.270,28.428 ZM14.432,18.077 C12.123,18.077 10.244,16.179 10.244,13.847 C10.244,11.515 12.123,9.618 14.432,9.618 C16.741,9.618 18.619,11.515 18.619,13.847 C18.619,16.179 16.741,18.077 14.432,18.077 ZM14.432,11.925 C13.382,11.925 12.528,12.787 12.528,13.847 C12.528,14.907 13.382,15.770 14.432,15.770 C15.481,15.770 16.335,14.907 16.335,13.847 C16.335,12.787 15.481,11.925 14.432,11.925 Z"/>
</svg>