<svg 
 xmlns="http://www.w3.org/2000/svg"
 xmlns:xlink="http://www.w3.org/1999/xlink"
 width="16px" height="16px">
<path fill-rule="evenodd"  fill="rgb(96, 186, 190)"
 d="M13.677,9.978 C12.958,9.263 12.135,8.702 11.222,8.305 C12.231,7.393 12.808,6.094 12.792,4.720 C12.778,3.453 12.266,2.262 11.350,1.369 C10.430,0.472 9.206,-0.019 7.939,0.003 C5.333,0.036 3.211,2.177 3.211,4.774 C3.211,6.127 3.789,7.405 4.782,8.305 C3.870,8.702 3.046,9.263 2.328,9.978 C0.986,11.314 0.162,13.081 0.005,14.953 C-0.017,15.219 0.074,15.485 0.255,15.681 C0.435,15.876 0.691,15.988 0.961,15.988 C1.462,15.988 1.871,15.611 1.914,15.111 C2.179,11.990 4.853,9.546 8.002,9.546 C11.150,9.546 13.825,11.990 14.091,15.111 C14.134,15.611 14.542,15.988 15.047,15.988 C15.313,15.988 15.570,15.876 15.750,15.681 C15.931,15.485 16.021,15.219 16.000,14.953 C15.843,13.081 15.018,11.314 13.677,9.978 ZM10.877,4.679 C10.903,5.477 10.606,6.228 10.038,6.795 C9.470,7.363 8.715,7.676 7.906,7.636 C6.397,7.587 5.176,6.372 5.127,4.870 C5.101,4.072 5.399,3.321 5.965,2.755 C6.535,2.185 7.306,1.882 8.099,1.913 C9.607,1.962 10.829,3.177 10.877,4.679 Z"/>
</svg>