<svg 
 xmlns="http://www.w3.org/2000/svg"
 xmlns:xlink="http://www.w3.org/1999/xlink"
 width="46px" height="40px">
<path fill-rule="evenodd"  fill="rgb(240, 242, 247)"
 d="M45.992,28.979 C45.992,35.069 41.087,40.002 35.039,40.002 C28.990,40.002 24.085,35.069 24.085,28.979 C24.085,28.973 24.085,28.970 24.085,28.965 C24.074,28.643 23.431,11.080 34.762,2.707 C44.979,-4.844 33.956,4.330 31.490,18.559 C32.605,18.172 33.796,17.955 35.039,17.955 C41.087,17.955 45.992,22.890 45.992,28.979 ZM10.943,40.002 C4.891,40.002 -0.010,35.069 -0.010,28.979 C-0.010,28.973 -0.010,28.970 -0.010,28.965 C-0.024,28.643 -0.668,11.080 10.664,2.707 C20.884,-4.844 9.860,4.330 7.395,18.559 C8.509,18.172 9.698,17.955 10.943,17.955 C16.992,17.955 21.896,22.890 21.896,28.979 C21.896,35.069 16.992,40.002 10.943,40.002 Z"/>
</svg>