<svg 
 xmlns="http://www.w3.org/2000/svg"
 xmlns:xlink="http://www.w3.org/1999/xlink"
 width="16px" height="12px">
<path fill-rule="evenodd"  fill="rgb(96, 186, 190)"
 d="M15.667,11.968 C15.612,11.989 15.556,12.000 15.500,12.000 C15.332,12.000 15.169,11.910 15.076,11.754 L14.573,10.913 C13.575,9.248 11.578,7.304 9.233,7.304 L9.000,7.304 L9.000,9.913 C9.000,10.118 8.884,10.305 8.704,10.390 C8.523,10.471 8.313,10.440 8.166,10.301 L3.166,5.606 C3.061,5.506 3.000,5.366 3.000,5.217 C3.000,5.069 3.061,4.928 3.165,4.829 L8.165,0.134 C8.312,-0.004 8.523,-0.040 8.704,0.045 C8.884,0.129 9.000,0.316 9.000,0.522 L9.000,3.145 C12.586,3.355 15.326,5.817 15.740,9.277 L15.996,11.412 C16.025,11.655 15.889,11.887 15.667,11.968 ZM1.247,5.217 L5.835,9.525 C6.040,9.719 6.057,10.048 5.872,10.262 C5.772,10.376 5.637,10.434 5.500,10.434 C5.381,10.434 5.261,10.391 5.165,10.301 L0.165,5.606 C0.061,5.506 -0.000,5.366 -0.000,5.217 C-0.000,5.069 0.061,4.928 0.165,4.829 L5.165,0.134 C5.370,-0.058 5.686,-0.041 5.872,0.172 C6.057,0.387 6.040,0.717 5.835,0.910 L1.247,5.217 Z"/>
</svg>